<?xml version="1.0" encoding="UTF-8"?>
<svg xmlns="http://www.w3.org/2000/svg" xmlns:xlink="http://www.w3.org/1999/xlink" width="512" height="512" viewBox="0 0 60 60" version="1.1"><!-- Generator: Sketch 51.3 (57544) - http://www.bohemiancoding.com/sketch --><title>004 - Family Cover</title><desc>Created with Sketch.</desc><defs/><g id="Page-1" stroke="none" stroke-width="1" fill="none" fill-rule="evenodd"><g id="004---Family-Cover" fill-rule="nonzero"><path d="M46,42 L52,42 C53.8565154,42 55.6369928,42.7374979 56.9497475,44.0502525 C58.2625021,45.3630072 59,47.1434846 59,49 L59,58 C59,58.5522847 58.5522847,59 58,59 L39,59 L39,49 C39,45.1340068 42.1340068,42 46,42 Z" id="Shape" fill="#6A1B9A"/><path d="M46,42 L49,42 C52.8659932,42 56,45.1340068 56,49 L56,58 C56,58.5522847 55.5522847,59 55,59 L39,59 L39,49 C39,45.1340068 42.1340068,42 46,42 Z" id="Shape" fill="#9D27B0"/><path d="M32,18 L32,30 C32,31.1045695 31.1045695,32 30,32 C28.8954305,32 28,31.1045695 28,30 L28,18" id="Shape" fill="#3F51B5"/><path d="M21,49 L21,59 L2,59 C1.44771525,59 1,58.5522847 1,58 L1,49 C1,45.1340068 4.13400675,42 8,42 L14,42 C15.8565154,42 17.6369928,42.7374979 18.9497475,44.0502525 C20.2625021,45.3630072 21,47.1434846 21,49 Z" id="Shape" fill="#BB193B"/><path d="M18,49 L18,59 L1.85,59 C1.34154999,58.9538971 0.963587809,58.5092357 1,58 L1,49 C1,45.13 3.661,42 6.95,42 L12.05,42 C15.339,42 18,45.13 18,49 Z" id="Shape" fill="#EF314C"/><path d="M28,48 L32,48 C35.8659932,48 39,51.1340068 39,55 L39,59 L21,59 L21,55 C21,51.1340068 24.1340068,48 28,48 Z" id="Shape" fill="#0377BC"/><path d="M28,48 L29,48 C32.8659932,48 36,51.1340068 36,55 L36,59 L21,59 L21,55 C21,51.1340068 24.1340068,48 28,48 Z" id="Shape" fill="#02A9F4"/><path d="M27,48 L29.143,51.571 C29.3238357,51.8717398 29.6490784,52.0556836 30,52.0556836 C30.3509216,52.0556836 30.6761643,51.8717398 30.857,51.571 L33,48" id="Shape" fill="#FFE0B2"/><path d="M45,42 C45,42 44,49 49,49 C54,49 53,42 53,42" id="Shape" fill="#FFE0B2"/><path d="M59,25 C57.9632219,24.0223865 56.7656902,23.2307978 55.46,22.66 C54.0727294,22.0157505 52.5098812,21.8538338 51.02,22.2 C49.8688264,22.5152623 48.8249647,23.1374315 48,24 C47.538162,23.5633987 47.0359076,23.1716402 46.5,22.83 C44.6893987,21.5866947 42.4624422,21.1053847 40.3,21.49 C38.6527512,21.889898 37.1582041,22.7622964 36,24 C35.7568533,23.4093398 35.3681058,22.889863 34.87,22.49 C33.4806455,21.4200128 31.7502013,20.8905751 30,21 C29.4983357,21.0000355 28.9972295,21.0334426 28.5,21.1 C24.79,21.62 24,24 24,24 C23.4349426,23.4284895 22.8077065,22.9220047 22.13,22.49 C20.5236428,21.4512525 18.5710156,21.0916526 16.7,21.49 C14.9416904,21.9036408 13.3216922,22.7687888 12,24 C11.5546264,23.5446143 11.0501181,23.1510978 10.5,22.83 C9.13692334,22.0276735 7.51052032,21.8009846 5.98,22.2 C4.1133934,22.7056804 2.40196839,23.6679274 1,25 C1.12651294,24.208615 1.30693283,23.4267955 1.54,22.66 C3.12,17.13 8.97,3.68 28.5,3.03 C28.99,3.01 29.49,3 30,3 C56,3 59,25 59,25 Z" id="Shape" fill="#BB193B"/><path d="M55.46,22.66 C54.0727294,22.0157505 52.5098812,21.8538338 51.02,22.2 C49.4894797,21.8009846 47.8630767,22.0276735 46.5,22.83 C44.6893987,21.5866947 42.4624422,21.1053847 40.3,21.49 C38.4289844,21.0916526 36.4763572,21.4512525 34.87,22.49 C33.4806455,21.4200128 31.7502013,20.8905751 30,21 C29.4983357,21.0000355 28.9972295,21.0334426 28.5,21.1 C28.0027705,21.0334426 27.5016643,21.0000355 27,21 C25.2497987,20.8905751 23.5193545,21.4200128 22.13,22.49 C20.5236428,21.4512525 18.5710156,21.0916526 16.7,21.49 C14.5375578,21.1053847 12.3106013,21.5866947 10.5,22.83 C9.13692334,22.0276735 7.51052032,21.8009846 5.98,22.2 C4.4901188,21.8538338 2.92727057,22.0157505 1.54,22.66 C3.12,17.13 8.97,3.68 28.5,3.03 C48.03,3.68 53.88,17.13 55.46,22.66 Z" id="Shape" fill="#EF314C"/><path d="M30,3 C13,7 12,24 12,24 C7,19 1,25 1,25 C1,25 4,3 30,3 Z" id="Shape" fill="#EF314C"/><path d="M36,24 C36,24 35,21 30,21 C25,21 24,24 24,24 C24,24 24,9 30,3 C36,9 36,24 36,24 Z" id="Shape" fill="#EF314C"/><path d="M48,24 C48,24 42,18 36,24 C36,24 36,9 30,3 C47,7 48,24 48,24 Z" id="Shape" fill="#9D27B0"/><path d="M30,3 C24,9 24,24 24,24 C18,18 12,24 12,24 C12,24 13,7 30,3 Z" id="Shape" fill="#9D27B0"/><circle id="Oval" fill="#DFC49C" cx="30" cy="43" r="6"/><ellipse id="Oval" fill="#FFE0B2" cx="28.5" cy="42" rx="4.5" ry="6"/><circle id="Oval" fill="#DFC49C" cx="49" cy="35" r="7"/><ellipse id="Oval" fill="#FFE0B2" cx="47.5" cy="35" rx="5.5" ry="7"/><path d="M8,41 L10.106,45.211 C10.2755612,45.5493149 10.6215717,45.762933 11,45.762933 C11.3784283,45.762933 11.7244388,45.5493149 11.894,45.211 L14,41 L8,41 Z" id="Shape" fill="#FFE0B2"/><circle id="Oval" fill="#DFC49C" cx="11" cy="35" r="7"/><ellipse id="Oval" fill="#FFE0B2" cx="9.5" cy="35" rx="5.5" ry="7"/><path d="M21,60 L2,60 C0.8954305,60 1.3527075e-16,59.1045695 0,58 L0,49 C0.00495988455,44.5837781 3.58377808,41.0049599 8,41 L14,41 C18.4162219,41.0049599 21.9950401,44.5837781 22,49 L22,59 C22,59.5522847 21.5522847,60 21,60 Z M8,43 C4.68766243,43.0033074 2.00330738,45.6876624 2,49 L2,58 L20,58 L20,49 C19.9966926,45.6876624 17.3123376,43.0033074 14,43 L8,43 Z" id="Shape" fill="#000000"/><path d="M39,60 L21,60 C20.4477153,60 20,59.5522847 20,59 L20,55 C20.0049599,50.5837781 23.5837781,47.0049599 28,47 L32,47 C36.4162219,47.0049599 39.9950401,50.5837781 40,55 L40,59 C40,59.5522847 39.5522847,60 39,60 Z M22,58 L38,58 L38,55 C37.9966926,51.6876624 35.3123376,49.0033074 32,49 L28,49 C24.6876624,49.0033074 22.0033074,51.6876624 22,55 L22,58 Z" id="Shape" fill="#000000"/><path d="M58,60 L39,60 C38.4477153,60 38,59.5522847 38,59 L38,49 C38.0049599,44.5837781 41.5837781,41.0049599 46,41 L52,41 C56.4162219,41.0049599 59.9950401,44.5837781 60,49 L60,58 C60,59.1045695 59.1045695,60 58,60 Z M40,58 L58,58 L58,49 C57.9966926,45.6876624 55.3123376,43.0033074 52,43 L46,43 C42.6876624,43.0033074 40.0033074,45.6876624 40,49 L40,58 Z" id="Shape" fill="#000000"/><path d="M11,43 C6.581722,43 3,39.418278 3,35 C3,30.581722 6.581722,27 11,27 C15.418278,27 19,30.581722 19,35 C18.9950401,39.4162219 15.4162219,42.9950401 11,43 Z M11,29 C7.6862915,29 5,31.6862915 5,35 C5,38.3137085 7.6862915,41 11,41 C14.3137085,41 17,38.3137085 17,35 C16.9966926,31.6876624 14.3123376,29.0033074 11,29 Z" id="Shape" fill="#000000"/><path d="M30,49 C26.1340068,49 23,45.8659932 23,42 C23,38.1340068 26.1340068,35 30,35 C33.8659932,35 37,38.1340068 37,42 C36.9955914,45.8641657 33.8641657,48.9955914 30,49 Z M30,37 C27.2385763,37 25,39.2385763 25,42 C25,44.7614237 27.2385763,47 30,47 C32.7614237,47 35,44.7614237 35,42 C34.9966939,39.2399468 32.7600532,37.0033061 30,37 Z" id="Shape" fill="#000000"/><path d="M49,43 C44.581722,43 41,39.418278 41,35 C41,30.581722 44.581722,27 49,27 C53.418278,27 57,30.581722 57,35 C56.9950401,39.4162219 53.4162219,42.9950401 49,43 Z M49,29 C45.6862915,29 43,31.6862915 43,35 C43,38.3137085 45.6862915,41 49,41 C52.3137085,41 55,38.3137085 55,35 C54.9966926,31.6876624 52.3123376,29.0033074 49,29 Z" id="Shape" fill="#000000"/><path d="M30,54 C29.6490146,53.9999332 29.3237575,53.8158613 29.143,53.515 L26.143,48.515 C25.8706364,48.042653 26.0268638,47.439184 26.4942161,47.1583363 C26.9615684,46.8774887 27.5677598,47.0227947 27.857,47.485 L30,51.056 L32.143,47.485 C32.3236127,47.1717721 32.659242,46.9804363 33.0207878,46.9845899 C33.3823337,46.9887436 33.7134786,47.1877396 33.8868476,47.5050342 C34.0602165,47.8223288 34.0488041,48.2084974 33.857,48.515 L30.857,53.515 C30.6762425,53.8158613 30.3509854,53.9999332 30,54 Z" id="Shape" fill="#000000"/><path d="M11,48 C10.6490146,47.9999332 10.3237575,47.8158613 10.143,47.515 L7.143,42.515 C6.87063638,42.042653 7.02686379,41.439184 7.49421612,41.1583363 C7.96156845,40.8774887 8.56775985,41.0227947 8.857,41.485 L11,45.056 L13.143,41.485 C13.3236127,41.1717721 13.659242,40.9804363 14.0207878,40.9845899 C14.3823337,40.9887436 14.7134786,41.1877396 14.8868476,41.5050342 C15.0602165,41.8223288 15.0488041,42.2084974 14.857,42.515 L11.857,47.515 C11.6762425,47.8158613 11.3509854,47.9999332 11,48 Z" id="Shape" fill="#000000"/><path d="M11,60 C10.4477153,60 10,59.5522847 10,59 L10,47 C10,46.4477153 10.4477153,46 11,46 C11.5522847,46 12,46.4477153 12,47 L12,59 C12,59.5522847 11.5522847,60 11,60 Z" id="Shape" fill="#000000"/><path d="M49,50 C47.6401601,50.0567471 46.3276969,49.4949982 45.43,48.472 C43.423,46.158 43.985,42.033 44.01,41.858 C44.0900082,41.313261 44.5953041,40.935673 45.1403867,41.0133059 C45.6854693,41.0909389 46.0652563,41.5945842 45.99,42.14 C45.858,43.082 45.773,45.819 46.943,47.165 C48.0883619,48.2802533 49.9136381,48.2802533 51.059,47.165 C52.234,45.81 52.144,43.082 52.01,42.145 C51.9592683,41.7913071 52.1010832,41.4374163 52.3820244,41.2166349 C52.6629656,40.9958534 53.0403515,40.9417233 53.3720244,41.0746349 C53.7036973,41.2075464 53.9392683,41.5073071 53.99,41.861 C54.015,42.036 54.577,46.161 52.57,48.475 C51.6717306,49.4968855 50.3593498,50.0574963 49,50 Z" id="Shape" fill="#000000"/><path d="M49,52 C48.4477153,52 48,51.5522847 48,51 L48,49 C48,48.4477153 48.4477153,48 49,48 C49.5522847,48 50,48.4477153 50,49 L50,51 C50,51.5522847 49.5522847,52 49,52 Z" id="Shape" fill="#000000"/><path d="M1,26 C0.711213178,26.0000446 0.436507083,25.8752414 0.246570408,25.6577055 C0.0566337323,25.4401695 -0.0299862248,25.1511432 0.009,24.865 C0.041,24.636 3.435,2 30,2 C56.565,2 59.959,24.636 59.991,24.865 C60.0505949,25.2913854 59.8305976,25.7080528 59.4448866,25.89932 C59.0591757,26.0905873 58.5943419,26.0135156 58.291,25.708 C58.074,25.494 52.931,20.481 48.704,24.708 C48.3135001,25.0983819 47.6804999,25.0983819 47.29,24.708 C47.074,24.495 41.911,19.502 36.704,24.708 C36.4589212,24.953167 36.1043528,25.0539191 35.7669733,24.9742601 C35.4295938,24.894601 35.1575363,24.6458956 35.048,24.317 C35.021,24.236 34.143,22 30,22 C25.837,22 24.957,24.293 24.949,24.316 C24.8394637,24.6448956 24.5674062,24.893601 24.2300267,24.9732601 C23.8926472,25.0529191 23.5380788,24.952167 23.293,24.707 C21.093,22.507 18.664,21.831 16.066,22.699 C14.819333,23.1284412 13.6754923,23.8122257 12.707,24.707 C12.3165001,25.0973819 11.6834999,25.0973819 11.293,24.707 C7.047,20.462 1.923,25.49 1.707,25.707 C1.51950727,25.8945494 1.26519481,25.9999434 1,26 Z M7.5,21.013 C9.14680902,21.0129132 10.7406616,21.5948465 12,22.656 C14.481,20.639 19.223,18.727 23.779,22.456 C24.654,21.38 26.465,20 30,20 C33.535,20 35.346,21.38 36.219,22.452 C40.774,18.727 45.519,20.639 47.998,22.652 C51.21,20.045 54.831,20.962 57.398,22.506 C55.712,16.827 49.716,4 30,4 C10.284,4 4.288,16.827 2.6,22.51 C4.06964477,21.5808562 5.762018,21.0638189 7.5,21.013 Z" id="Shape" fill="#000000"/><path d="M12,25 C11.98,25 11.96,25 11.94,25 C11.6747929,24.9845503 11.4266327,24.8642086 11.2502798,24.6655302 C11.0739269,24.4668517 10.9838766,24.206167 11,23.941 C11.01,23.764 12.246,6.149 29.769,2.026 C30.3069253,1.89952679 30.8455268,2.23307465 30.972,2.771 C31.0984732,3.30892535 30.7649253,3.84752679 30.227,3.974 C14.141,7.759 13.008,23.9 13,24.059 C12.9687283,24.5881184 12.5300409,25.0009233 12,25 Z" id="Shape" fill="#000000"/><path d="M24,25 C23.4477153,25 23,24.5522847 23,24 C23,23.371 23.071,8.514 29.293,2.293 C29.5440745,2.03304342 29.9158779,1.9287874 30.2655073,2.02030284 C30.6151368,2.11181828 30.8881817,2.38486324 30.9796972,2.73449268 C31.0712126,3.08412211 30.9669566,3.45592553 30.707,3.707 C25.065,9.349 25,23.854 25,24 C25,24.5522847 24.5522847,25 24,25 Z" id="Shape" fill="#000000"/><path d="M48,25 C47.4703227,25.0009542 47.0317798,24.5887239 47,24.06 C46.961,23.4 45.821,7.75 29.771,3.974 C29.2330747,3.84752679 28.8995268,3.30892535 29.026,2.771 C29.1524732,2.23307465 29.6910747,1.89952679 30.229,2.026 C47.752,6.149 48.988,23.764 49,23.941 C49.0161234,24.206167 48.9260731,24.4668517 48.7497202,24.6655302 C48.5733673,24.8642086 48.3252071,24.9845503 48.06,25 L48,25 Z" id="Shape" fill="#000000"/><path d="M36,25 C35.4477153,25 35,24.5522847 35,24 C35,23.854 34.928,9.342 29.293,3.707 C28.9140278,3.31462111 28.9194476,2.69091522 29.3051814,2.30518142 C29.6909152,1.91944763 30.3146211,1.91402779 30.707,2.293 C36.929,8.514 37,23.371 37,24 C37,24.5522847 36.5522847,25 36,25 Z" id="Shape" fill="#000000"/><path d="M30,4 C29.4477153,4 29,3.55228475 29,3 L29,1 C29,0.44771525 29.4477153,1.01453063e-16 30,0 C30.5522847,-1.01453063e-16 31,0.44771525 31,1 L31,3 C31,3.55228475 30.5522847,4 30,4 Z" id="Shape" fill="#000000"/><path d="M30,33 C28.3431458,33 27,31.6568542 27,30 L27,21.19 C27,20.6377153 27.4477153,20.19 28,20.19 C28.5522847,20.19 29,20.6377153 29,21.19 L29,30 C29,30.5522847 29.4477153,31 30,31 C30.5522847,31 31,30.5522847 31,30 L31,21.19 C31,20.6377153 31.4477153,20.19 32,20.19 C32.5522847,20.19 33,20.6377153 33,21.19 L33,30 C33,31.6568542 31.6568542,33 30,33 Z" id="Shape" fill="#000000"/></g></g></svg>
